REM DIRINDEX 1\2\5,1\2\6,1\2\7,1\2\8,1\3\9,1\3\10,1\3\11,1\4\12,1\4\13,1\4\14,1\4\15,1\4\16
REM DIRNAME cjc034,folder01,folder02,folder03,folder04,folder05,folder06,folder07,folder08,folder09,folder10,folder11,folder12,folder13,folder14,folder15
TITLE ""
FILE "1200_sec04_1370_1376.mp3" MP3
  TRACK 01 AUDIO
    TITLE "0:"
    INDEX 01 00:00:00
  TRACK 02 AUDIO
    TITLE "12:cjc034_09215"
    INDEX 01 00:00:17
  TRACK 03 AUDIO
    TITLE "0:"
    INDEX 01 00:01:34
  TRACK 04 AUDIO
    TITLE "13:cjc034_09216"
    INDEX 01 00:01:66
  TRACK 05 AUDIO
    TITLE "0:"
    INDEX 01 00:06:04
  TRACK 06 AUDIO
    TITLE "14:cjc034_09217"
    INDEX 01 00:06:35
  TRACK 07 AUDIO
    TITLE "0:"
    INDEX 01 00:07:52
  TRACK 08 AUDIO
    TITLE "15:cjc034_09218"
    INDEX 01 00:08:09
  TRACK 09 AUDIO
    TITLE "0:"
    INDEX 01 00:13:63
  TRACK 10 AUDIO
    TITLE "12:cjc034_09219"
    INDEX 01 00:15:21
  TRACK 11 AUDIO
    TITLE "0:"
    INDEX 01 00:16:34
  TRACK 12 AUDIO
    TITLE "13:cjc034_09220"
    INDEX 01 00:16:63
  TRACK 13 AUDIO
    TITLE "0:"
    INDEX 01 00:21:31
  TRACK 14 AUDIO
    TITLE "14:cjc034_09221"
    INDEX 01 00:21:64
  TRACK 15 AUDIO
    TITLE "0:"
    INDEX 01 00:22:74
  TRACK 16 AUDIO
    TITLE "15:cjc034_09222"
    INDEX 01 00:23:32
  TRACK 17 AUDIO
    TITLE "0:"
    INDEX 01 00:27:08
  TRACK 18 AUDIO
    TITLE "12:cjc034_09223"
    INDEX 01 00:28:43
  TRACK 19 AUDIO
    TITLE "0:"
    INDEX 01 00:29:56
  TRACK 20 AUDIO
    TITLE "13:cjc034_09224"
    INDEX 01 00:30:12
  TRACK 21 AUDIO
    TITLE "0:"
    INDEX 01 00:37:42
  TRACK 22 AUDIO
    TITLE "14:cjc034_09225"
    INDEX 01 00:38:00
  TRACK 23 AUDIO
    TITLE "0:"
    INDEX 01 00:39:13
  TRACK 24 AUDIO
    TITLE "15:cjc034_09226"
    INDEX 01 00:39:45
  TRACK 25 AUDIO
    TITLE "0:"
    INDEX 01 00:43:66
  TRACK 26 AUDIO
    TITLE "12:cjc034_09227"
    INDEX 01 00:45:30
  TRACK 27 AUDIO
    TITLE "0:"
    INDEX 01 00:46:39
  TRACK 28 AUDIO
    TITLE "13:cjc034_09228"
    INDEX 01 00:46:70
  TRACK 29 AUDIO
    TITLE "0:"
    INDEX 01 00:56:25
  TRACK 30 AUDIO
    TITLE "14:cjc034_09229"
    INDEX 01 00:56:65
  TRACK 31 AUDIO
    TITLE "0:"
    INDEX 01 00:57:72
  TRACK 32 AUDIO
    TITLE "15:cjc034_09230"
    INDEX 01 00:58:36
  TRACK 33 AUDIO
    TITLE "0:"
    INDEX 01 01:02:50
  TRACK 34 AUDIO
    TITLE "12:cjc034_09231"
    INDEX 01 01:04:11
  TRACK 35 AUDIO
    TITLE "0:"
    INDEX 01 01:05:32
  TRACK 36 AUDIO
    TITLE "13:cjc034_09232"
    INDEX 01 01:05:64
  TRACK 37 AUDIO
    TITLE "0:"
    INDEX 01 01:15:64
  TRACK 38 AUDIO
    TITLE "14:cjc034_09233"
    INDEX 01 01:16:22
  TRACK 39 AUDIO
    TITLE "0:"
    INDEX 01 01:17:43
  TRACK 40 AUDIO
    TITLE "15:cjc034_09234"
    INDEX 01 01:18:02
  TRACK 41 AUDIO
    TITLE "0:"
    INDEX 01 01:21:72
  TRACK 42 AUDIO
    TITLE "16:cjc034_09235"
    INDEX 01 01:23:28
  TRACK 43 AUDIO
    TITLE "0:"
    INDEX 01 01:26:66
  TRACK 44 AUDIO
    TITLE "12:cjc034_09236"
    INDEX 01 01:27:71
  TRACK 45 AUDIO
    TITLE "0:"
    INDEX 01 01:29:07
  TRACK 46 AUDIO
    TITLE "13:cjc034_09237"
    INDEX 01 01:29:39
  TRACK 47 AUDIO
    TITLE "0:"
    INDEX 01 01:30:62
  TRACK 48 AUDIO
    TITLE "14:cjc034_09238"
    INDEX 01 01:31:22
  TRACK 49 AUDIO
    TITLE "0:"
    INDEX 01 01:32:31
  TRACK 50 AUDIO
    TITLE "15:cjc034_09239"
    INDEX 01 01:32:62
  TRACK 51 AUDIO
    TITLE "0:"
    INDEX 01 01:37:68
  TRACK 52 AUDIO
    TITLE "12:cjc034_09240"
    INDEX 01 01:39:25
  TRACK 53 AUDIO
    TITLE "0:"
    INDEX 01 01:40:40
  TRACK 54 AUDIO
    TITLE "13:cjc034_09241"
    INDEX 01 01:40:72
  TRACK 55 AUDIO
    TITLE "0:"
    INDEX 01 01:43:27
  TRACK 56 AUDIO
    TITLE "14:cjc034_09242"
    INDEX 01 01:43:58
  TRACK 57 AUDIO
    TITLE "0:"
    INDEX 01 01:45:00
  TRACK 58 AUDIO
    TITLE "15:cjc034_09243"
    INDEX 01 01:45:32
  TRACK 59 AUDIO
    TITLE "0:"
    INDEX 01 01:49:69
